<svg width="128" height="128" viewBox="0 0 128 128" fill="none" xmlns="http://www.w3.org/2000/svg">
  <rect width="128" height="128" rx="24" fill="#68C5DB"/>
  <circle cx="64" cy="64" r="40" fill="#0197F6"/>
  <path d="M64 44C58.5 44 54 48.5 54 54V64H44C38.5 64 34 68.5 34 74V84C34 89.5 38.5 94 44 94H64H84C89.5 94 94 89.5 94 84V74C94 68.5 89.5 64 84 64H74V54C74 48.5 69.5 44 64 44Z" fill="white"/>
  <circle cx="50" cy="78" r="4" fill="#02182B"/>
  <circle cx="78" cy="78" r="4" fill="#02182B"/>
  <path d="M56 84C56 84 60 88 64 88C68 88 72 84 72 84" stroke="#02182B" stroke-width="3" stroke-linecap="round"/>
</svg>

